<svg xmlns="http://www.w3.org/2000/svg" width="40" height="24" fill="none"><g clip-path="url(#a)"><path fill="#689F63" d="M19.769 24a.773.773 0 0 1-.38-.1l-1.205-.699c-.18-.098-.093-.133-.033-.153.24-.083.289-.101.545-.244.027-.015.062-.01.09.006l.926.539a.125.125 0 0 0 .112 0l3.613-2.043a.111.111 0 0 0 .055-.096v-4.083a.113.113 0 0 0-.056-.098l-3.61-2.04a.113.113 0 0 0-.112 0l-3.61 2.04a.112.112 0 0 0-.057.097v4.083c0 .04.021.077.055.095l.99.56c.537.263.865-.047.865-.359v-4.03c0-.058.046-.102.105-.102h.457c.058 0 .105.044.105.102v4.032c0 .702-.391 1.105-1.07 1.105-.21 0-.374 0-.833-.222l-.948-.535a.746.746 0 0 1-.378-.646v-4.083c0-.266.144-.514.378-.645l3.616-2.044a.806.806 0 0 1 .76 0l3.611 2.045c.234.132.38.379.38.645v4.083a.746.746 0 0 1-.38.645L20.15 23.9a.772.772 0 0 1-.38.1"/><path fill="#689F63" d="M20.889 21.186c-1.581 0-1.912-.71-1.912-1.307 0-.057.046-.102.104-.102h.467c.051 0 .095.037.103.087.07.466.28.7 1.236.7.761 0 1.085-.168 1.085-.563 0-.228-.092-.397-1.275-.51-.99-.096-1.6-.31-1.6-1.085 0-.714.614-1.14 1.644-1.14 1.157 0 1.73.394 1.802 1.24a.102.102 0 0 1-.028.078.109.109 0 0 1-.076.033h-.47a.103.103 0 0 1-.101-.08c-.113-.49-.386-.646-1.128-.646-.831 0-.928.283-.928.496 0 .257.114.333 1.235.478 1.11.144 1.637.348 1.637 1.113 0 .77-.656 1.212-1.8 1.212m4.4-4.33h.12c.1 0 .119-.069.119-.109 0-.104-.073-.104-.114-.104h-.125v.212Zm-.148-.335h.268c.093 0 .273 0 .273.202 0 .14-.092.17-.147.187.108.007.115.076.13.174.007.061.018.166.04.202h-.165c-.005-.036-.03-.23-.03-.241-.011-.043-.026-.065-.082-.065h-.136v.307h-.151v-.767Zm-.323.38c0 .318.261.574.582.574a.583.583 0 0 0 .585-.574.578.578 0 0 0-.586-.57.575.575 0 0 0-.582.57m1.28.002a.691.691 0 0 1-.696.682.69.69 0 0 1-.696-.682.69.69 0 0 1 .696-.682c.375 0 .696.297.696.682"/><path fill="#fff" fill-rule="evenodd" d="M8.584 8.021a.452.452 0 0 0-.231-.393l-3.83-2.16a.454.454 0 0 0-.21-.059h-.04a.462.462 0 0 0-.212.06L.231 7.628A.455.455 0 0 0 0 8.022l.008 5.814c0 .081.043.156.115.196.07.043.16.043.23 0l2.277-1.277a.456.456 0 0 0 .231-.394V9.645a.45.45 0 0 1 .231-.392l.97-.547a.467.467 0 0 1 .461 0l.969.546a.45.45 0 0 1 .231.393v2.716c0 .161.09.31.232.393l2.276 1.277a.23.23 0 0 0 .346-.196l.007-5.814Zm18.073 3.028c0 .04-.022.078-.058.098l-1.316.743a.118.118 0 0 1-.115 0l-1.316-.743a.112.112 0 0 1-.058-.098V9.56c0-.04.022-.078.057-.098l1.315-.745c.036-.02.08-.02.117 0l1.315.745c.037.02.058.057.058.098v1.488Zm.355-11.02a.237.237 0 0 0-.23.002.227.227 0 0 0-.114.196v5.758c0 .056-.03.109-.08.137a.165.165 0 0 1-.163 0l-.96-.541a.47.47 0 0 0-.461 0l-3.832 2.166a.45.45 0 0 0-.231.391v4.334c0 .162.088.31.231.392l3.832 2.168c.143.08.319.08.462 0l3.831-2.168a.453.453 0 0 0 .232-.393v-10.8a.453.453 0 0 0-.238-.396L27.012.029ZM39.77 9.522A.452.452 0 0 0 40 9.13V8.08a.452.452 0 0 0-.23-.392l-3.807-2.165a.47.47 0 0 0-.464 0l-3.83 2.166a.45.45 0 0 0-.232.392v4.332c0 .163.09.313.233.394l3.806 2.125a.47.47 0 0 0 .454.003l2.302-1.254a.226.226 0 0 0 .119-.196.226.226 0 0 0-.117-.198L34.38 11.12a.224.224 0 0 1-.116-.195v-1.36c0-.08.043-.155.116-.196l1.198-.677c.072-.041.16-.041.231 0l1.2.677c.072.04.116.116.116.196v1.069c0 .08.044.155.115.196.072.04.16.04.232 0l2.298-1.308Z" clip-rule="evenodd"/><path fill="#689F63" fill-rule="evenodd" d="M35.678 9.319a.09.09 0 0 1 .089 0l.735.415a.087.087 0 0 1 .044.076v.831c0 .031-.016.06-.044.076l-.735.415a.09.09 0 0 1-.089 0l-.734-.415a.086.086 0 0 1-.046-.076V9.81c0-.031.017-.06.045-.076l.735-.415Z" clip-rule="evenodd"/><path fill="url(#b)" d="M22.879 7.333 12.145 2.178l-5.504 11 10.734 5.155 5.504-11Z"/><path fill="url(#c)" d="m5.945 8.857 7.58 10.05 10.024-7.255-7.58-10.05L5.945 8.857Z"/><path fill="url(#d)" d="M10.734 5.485V15h8.29V5.486h-8.29Z"/></g><defs><linearGradient id="b" x1=".99" x2="26.955" y1="2.178" y2="2.178" gradientUnits="userSpaceOnUse"><stop offset=".3" stop-color="#3E863D"/><stop offset=".5" stop-color="#55934F"/><stop offset=".8" stop-color="#5AAD45"/></linearGradient><linearGradient id="c" x1="-2.082" x2="16.191" y1="1.602" y2="1.602" gradientUnits="userSpaceOnUse"><stop offset=".57" stop-color="#3E863D"/><stop offset=".72" stop-color="#619857"/><stop offset="1" stop-color="#76AC64"/></linearGradient><linearGradient id="d" x1="11.091" x2="18.892" y1="5.485" y2="5.485" gradientUnits="userSpaceOnUse"><stop offset=".16" stop-color="#6BBF47"/><stop offset=".38" stop-color="#79B461"/><stop offset=".47" stop-color="#75AC64"/><stop offset=".7" stop-color="#659E5A"/><stop offset=".9" stop-color="#3E863D"/></linearGradient><clipPath id="a"><path fill="#fff" d="M0 0h40v24H0z"/></clipPath></defs></svg>